<?xml version="1.0" encoding="UTF-8" standalone="no"?>
<!DOCTYPE svg PUBLIC "-//W3C//DTD SVG 1.1//EN" "http://www.w3.org/Graphics/SVG/1.1/DTD/svg11.dtd">
<svg xmlns="http://www.w3.org/2000/svg" version="1.1" viewBox="0.00 0.00 1024.00 1024.00">
<path fill="#a2a1a0" d="
  M 636.30 439.16
  L 634.85 438.93
  L 633.37 438.40
  L 615.05 430.34
  L 597.06 422.82
  L 596.34 422.24
  L 596.07 421.36
  L 596.07 322.83
  L 595.77 321.83
  L 594.97 321.16
  L 513.46 286.12
  L 512.12 285.84
  L 510.78 286.12
  L 468.32 304.30
  L 439.97 316.97
  L 433.44 319.67
  L 426.97 321.83
  L 511.91 285.30
  L 512.43 285.19
  L 512.90 285.30
  L 594.92 320.55
  L 595.77 321.08
  L 596.43 321.82
  L 596.86 322.73
  L 597.00 323.72
  L 597.00 420.52
  L 597.10 421.23
  L 597.41 421.88
  L 597.89 422.42
  L 598.50 422.80
  L 636.30 439.16
  Z"
/>
<path fill="#000000" d="
  M 636.30 439.16
  L 638.55 440.09
  L 639.66 441.04
  L 640.04 441.99
  L 640.04 441.99
  L 640.04 442.00
  L 639.95 568.86
  L 639.65 569.78
  L 638.73 570.08
  L 622.06 570.03
  L 622.15 469.72
  L 622.37 454.17
  L 622.09 453.09
  L 621.22 452.41
  L 602.30 444.40
  L 601.99 444.49
  L 601.99 444.49
  L 601.53 444.39
  L 601.05 444.03
  L 597.23 442.24
  L 596.41 442.16
  L 596.14 442.93
  L 596.14 581.38
  L 595.81 582.52
  L 594.91 583.29
  L 569.31 594.96
  L 568.58 595.29
  L 568.52 595.29
  L 559.83 598.76
  L 551.25 602.45
  L 551.25 602.45
  L 537.52 608.93
  L 537.30 609.07
  L 529.92 611.90
  L 520.09 616.27
  L 512.33 619.76
  L 511.13 619.88
  L 446.03 591.53
  L 445.34 591.42
  L 444.86 590.98
  L 427.06 582.94
  L 427.07 579.02
  L 427.00 502.70
  L 427.04 444.00
  L 426.80 443.25
  L 426.29 443.03
  L 425.51 443.08
  L 417.14 446.18
  L 409.19 449.92
  L 408.12 450.60
  L 406.78 451.09
  L 404.98 451.30
  L 403.50 451.99
  L 402.46 453.00
  L 402.10 453.70
  L 401.97 454.26
  L 401.79 570.17
  L 385.08 570.11
  L 384.21 569.75
  L 383.85 568.88
  L 383.85 463.16
  L 384.02 440.87
  L 404.73 432.47
  L 425.29 423.63
  L 425.65 423.28
  L 425.67 423.11
  L 425.87 423.06
  L 426.45 422.81
  L 426.77 422.50
  L 426.89 422.03
  L 426.97 321.83
  L 433.44 319.67
  L 439.97 316.97
  L 468.32 304.30
  L 510.78 286.12
  L 511.80 285.86
  L 512.65 285.88
  L 513.46 286.12
  L 594.97 321.16
  L 595.77 321.83
  L 596.07 322.83
  L 596.07 421.36
  L 596.34 422.24
  L 597.06 422.82
  L 615.05 430.34
  L 633.37 438.40
  L 634.85 438.93
  L 636.30 439.16
  Z
  M 500.05 310.01
  L 499.05 310.14
  L 498.25 310.54
  L 497.83 310.97
  L 497.24 311.26
  L 475.20 320.92
  L 475.16 321.03
  L 474.59 321.29
  L 468.00 323.66
  L 461.59 326.44
  L 460.84 326.80
  L 453.31 330.26
  L 445.65 333.51
  L 445.29 333.78
  L 445.11 334.21
  L 445.06 335.96
  L 445.28 337.04
  L 445.43 350.96
  L 445.04 355.79
  L 445.42 360.56
  L 445.41 391.46
  L 445.39 400.48
  L 445.02 407.73
  L 444.91 415.00
  L 445.15 415.56
  L 445.85 416.35
  L 511.49 444.74
  L 512.27 444.91
  L 513.05 444.75
  L 577.21 417.26
  L 577.85 416.87
  L 578.35 416.31
  L 578.67 415.62
  L 578.78 414.88
  L 578.78 334.91
  L 578.48 333.90
  L 577.68 333.23
  L 520.08 308.40
  L 519.29 308.41
  L 518.83 307.95
  L 515.34 306.24
  L 511.94 305.24
  L 511.88 305.32
  L 511.13 305.40
  L 500.05 310.01
  Z
  M 446.11 436.79
  L 445.40 437.10
  L 445.06 437.53
  L 445.02 437.75
  L 444.91 458.29
  L 445.42 480.46
  L 445.16 493.38
  L 445.40 493.92
  L 445.97 494.08
  L 446.10 494.05
  L 446.52 493.80
  L 446.14 493.70
  L 447.68 494.47
  L 449.57 495.54
  L 450.00 495.74
  L 480.29 509.06
  L 498.65 516.80
  L 502.49 518.46
  L 507.37 520.57
  L 510.85 521.88
  L 512.31 522.09
  L 513.75 521.75
  L 569.77 497.06
  L 571.14 496.27
  L 572.75 495.69
  L 578.27 493.43
  L 578.73 493.06
  L 578.90 492.50
  L 578.90 437.26
  L 578.81 436.83
  L 578.52 436.48
  L 577.96 436.27
  L 577.96 436.27
  L 577.57 436.44
  L 577.21 436.89
  L 576.68 436.98
  L 576.50 436.94
  L 524.75 459.03
  L 524.54 459.28
  L 512.57 464.06
  L 511.71 464.22
  L 510.86 464.04
  L 471.79 447.44
  L 471.42 447.41
  L 470.54 446.94
  L 445.57 436.20
  L 445.30 436.34
  L 445.30 436.37
  L 445.39 436.69
  L 446.11 436.79
  Z
  M 574.12 514.96
  L 573.26 515.26
  L 573.25 515.26
  L 572.61 515.37
  L 571.31 515.78
  L 542.66 528.28
  L 514.19 541.29
  L 511.49 542.16
  L 497.00 535.99
  L 495.81 535.65
  L 494.86 535.05
  L 494.80 534.99
  L 463.79 521.52
  L 462.91 521.24
  L 462.30 520.77
  L 450.28 515.53
  L 449.55 515.27
  L 449.55 515.25
  L 445.60 513.25
  L 445.36 513.26
  L 445.24 513.46
  L 445.24 513.46
  L 445.26 513.56
  L 445.39 513.93
  L 445.25 514.48
  L 445.34 514.84
  L 445.03 515.79
  L 445.26 517.23
  L 444.87 522.08
  L 444.82 526.98
  L 445.42 547.77
  L 445.38 560.63
  L 444.94 567.50
  L 445.02 569.32
  L 445.50 570.96
  L 448.72 572.92
  L 452.56 574.75
  L 477.82 585.61
  L 508.50 599.06
  L 509.96 599.76
  L 511.27 600.15
  L 512.42 600.22
  L 513.42 599.98
  L 577.37 572.19
  L 577.96 571.82
  L 578.43 571.30
  L 578.72 570.67
  L 578.82 569.98
  L 578.82 514.02
  L 578.81 513.88
  L 578.38 513.24
  L 577.61 513.14
  L 576.10 513.74
  L 574.71 514.53
  L 574.71 514.53
  L 574.12 514.96
  Z"
/>
<path fill="#a2a1a0" d="
  M 511.13 305.40
  L 500.05 310.01
  L 511.13 305.40
  Z"
/>
<path fill="#a2a1a0" d="
  M 518.83 307.95
  L 511.94 305.24
  L 515.34 306.24
  L 518.83 307.95
  Z"
/>
<path fill="#a2a1a0" d="
  M 445.85 416.35
  L 478.03 429.84
  L 509.99 443.81
  L 511.00 444.05
  L 512.29 443.98
  L 513.85 443.60
  L 515.68 442.91
  L 569.33 420.15
  L 573.01 418.55
  L 576.43 416.79
  L 577.09 416.30
  L 577.60 415.66
  L 577.92 414.90
  L 578.03 414.09
  L 578.03 335.85
  L 577.92 334.98
  L 577.60 334.26
  L 577.06 333.67
  L 576.30 333.22
  L 527.19 312.09
  L 523.16 310.16
  L 520.08 308.40
  L 577.68 333.23
  L 578.48 333.90
  L 578.78 334.91
  L 578.78 414.88
  L 578.67 415.62
  L 578.35 416.31
  L 577.85 416.87
  L 577.21 417.26
  L 513.05 444.75
  L 512.27 444.91
  L 511.49 444.74
  L 445.85 416.35
  Z"
/>
<path fill="#a2a1a0" d="
  M 500.05 310.01
  L 499.12 310.58
  L 497.83 310.97
  L 498.25 310.54
  L 499.05 310.14
  L 500.05 310.01
  Z"
/>
<path fill="#a2a1a0" d="
  M 497.24 311.26
  L 475.20 320.92
  L 497.24 311.26
  Z"
/>
<path fill="#a2a1a0" d="
  M 474.59 321.29
  L 447.29 333.53
  L 446.45 334.03
  L 445.83 334.68
  L 445.83 334.68
  L 445.83 334.68
  L 445.37 335.73
  L 445.28 337.04
  L 445.06 335.96
  L 445.11 334.21
  L 445.29 333.78
  L 445.65 333.51
  L 453.31 330.26
  L 460.84 326.80
  L 461.59 326.44
  L 468.00 323.66
  L 474.59 321.29
  Z"
/>
<path fill="#000000" d="
  M 488.49 349.12
  L 488.08 369.30
  L 487.78 369.98
  L 487.09 370.26
  L 464.98 370.11
  L 465.05 349.91
  L 465.28 349.21
  L 465.97 348.99
  L 488.49 349.12
  Z"
/>
<path fill="#a2a1a0" d="
  M 531.03 370.03
  L 552.37 370.11
  L 552.96 369.87
  L 553.20 369.28
  L 553.20 350.27
  L 553.20 350.26
  L 552.96 349.71
  L 552.40 349.49
  L 542.23 349.62
  L 532.04 349.49
  L 531.48 349.62
  L 531.45 349.64
  L 531.03 350.00
  L 531.01 349.57
  L 531.12 349.16
  L 531.52 349.03
  L 553.51 349.03
  L 553.87 349.15
  L 553.99 349.51
  L 553.99 370.72
  L 553.91 370.92
  L 553.71 371.00
  L 531.50 371.00
  L 531.04 370.84
  L 530.94 370.52
  L 531.03 370.03
  Z"
/>
<path fill="#a2a1a0" d="
  M 464.98 370.11
  L 487.09 370.26
  L 487.78 369.98
  L 488.08 369.30
  L 488.49 349.12
  L 489.08 359.22
  L 488.95 369.15
  L 488.79 369.83
  L 488.38 370.41
  L 487.79 370.79
  L 487.10 370.93
  L 466.00 370.95
  L 465.29 370.72
  L 464.98 370.11
  Z"
/>
<path fill="#000000" d="
  M 531.03 370.03
  L 531.03 350.00
  L 531.45 349.64
  L 531.48 349.62
  L 532.04 349.49
  L 542.23 349.62
  L 552.40 349.49
  L 552.96 349.71
  L 553.20 350.26
  L 553.20 350.26
  L 553.20 350.27
  L 553.20 369.28
  L 552.96 369.87
  L 552.37 370.11
  L 531.03 370.03
  Z"
/>
<path fill="#a2a1a0" d="
  M 445.43 350.96
  L 445.76 353.35
  L 445.87 355.73
  L 445.76 358.15
  L 445.42 360.56
  L 445.04 355.79
  L 445.43 350.96
  Z"
/>
<path fill="#a2a1a0" d="
  M 445.41 391.46
  L 445.75 393.69
  L 445.86 395.92
  L 445.74 398.20
  L 445.39 400.48
  L 445.41 391.46
  Z"
/>
<path fill="#a2a1a0" d="
  M 465.07 413.49
  L 479.53 413.10
  L 493.95 412.90
  L 508.34 412.91
  L 522.68 413.12
  L 523.30 413.01
  L 523.83 412.66
  L 524.19 412.14
  L 524.32 411.52
  L 524.32 411.52
  L 524.32 411.51
  L 524.32 395.04
  L 524.32 395.02
  L 524.19 394.44
  L 523.85 393.94
  L 523.35 393.62
  L 522.76 393.52
  L 493.97 393.88
  L 465.02 393.46
  L 524.48 393.05
  L 524.84 393.17
  L 524.96 393.53
  L 524.96 411.73
  L 524.82 412.74
  L 524.38 413.45
  L 524.38 413.45
  L 523.66 413.88
  L 522.64 414.02
  L 465.07 413.49
  Z"
/>
<path fill="#000000" d="
  M 465.07 413.49
  L 465.02 393.46
  L 493.97 393.88
  L 522.76 393.52
  L 523.35 393.62
  L 523.85 393.94
  L 524.19 394.44
  L 524.32 395.02
  L 524.32 395.02
  L 524.32 395.04
  L 524.32 411.51
  L 524.32 411.52
  L 524.19 412.14
  L 523.83 412.66
  L 523.30 413.01
  L 522.68 413.12
  L 508.34 412.91
  L 493.95 412.90
  L 479.53 413.10
  L 465.07 413.49
  Z"
/>
<path fill="#a2a1a0" d="
  M 425.67 423.11
  L 425.65 423.28
  L 425.29 423.63
  L 404.73 432.47
  L 384.02 440.87
  L 404.47 431.77
  L 425.21 423.10
  L 425.48 423.05
  L 425.67 423.11
  Z"
/>
<path fill="#a2a1a0" d="
  M 470.54 446.94
  L 446.11 436.79
  L 445.39 436.69
  L 445.30 436.37
  L 445.30 436.34
  L 445.57 436.20
  L 470.54 446.94
  Z"
/>
<path fill="#a2a1a0" d="
  M 572.75 495.69
  L 576.66 493.65
  L 577.49 493.03
  L 577.93 492.29
  L 578.01 491.75
  L 578.04 438.75
  L 577.91 437.83
  L 577.52 437.15
  L 577.21 436.89
  L 577.57 436.44
  L 577.96 436.27
  L 577.96 436.27
  L 578.52 436.48
  L 578.81 436.83
  L 578.90 437.26
  L 578.90 492.50
  L 578.73 493.06
  L 578.27 493.43
  L 572.75 495.69
  Z"
/>
<path fill="#a2a1a0" d="
  M 576.50 436.94
  L 524.75 459.03
  L 576.50 436.94
  Z"
/>
<path fill="#a2a1a0" d="
  M 622.06 570.03
  L 638.73 570.08
  L 639.65 569.78
  L 639.95 568.86
  L 640.04 442.00
  L 640.04 441.99
  L 640.04 441.99
  L 639.66 441.04
  L 638.55 440.09
  L 639.51 440.17
  L 640.23 440.53
  L 640.23 440.53
  L 640.23 440.53
  L 640.82 441.41
  L 641.01 442.75
  L 640.94 568.97
  L 640.94 568.97
  L 640.79 569.75
  L 640.35 570.40
  L 639.69 570.84
  L 638.92 570.99
  L 622.68 570.99
  L 622.23 570.85
  L 622.01 570.46
  L 622.04 570.06
  L 622.06 570.03
  Z"
/>
<path fill="#a2a1a0" d="
  M 601.05 444.03
  L 599.68 443.69
  L 598.48 443.14
  L 598.05 443.01
  L 597.61 443.08
  L 597.24 443.33
  L 597.02 443.73
  L 596.99 443.99
  L 596.99 581.89
  L 596.67 582.96
  L 595.82 583.67
  L 569.31 594.96
  L 594.91 583.29
  L 595.81 582.52
  L 596.14 581.38
  L 596.14 442.93
  L 596.41 442.16
  L 597.23 442.24
  L 601.05 444.03
  Z"
/>
<path fill="#a2a1a0" d="
  M 425.51 443.08
  L 417.44 446.85
  L 409.19 449.92
  L 417.14 446.18
  L 425.51 443.08
  Z"
/>
<path fill="#a2a1a0" d="
  M 622.15 469.72
  L 621.76 453.82
  L 621.63 453.38
  L 621.29 453.10
  L 613.15 449.45
  L 605.00 446.06
  L 603.55 445.34
  L 602.30 444.40
  L 621.22 452.41
  L 622.09 453.09
  L 622.37 454.17
  L 622.15 469.72
  Z"
/>
<path fill="#a2a1a0" d="
  M 524.54 459.28
  L 512.44 464.67
  L 511.76 464.82
  L 511.08 464.67
  L 471.79 447.44
  L 510.86 464.04
  L 511.71 464.22
  L 512.57 464.06
  L 524.54 459.28
  Z"
/>
<path fill="#a2a1a0" d="
  M 406.78 451.09
  L 402.46 453.00
  L 403.50 451.99
  L 403.50 451.99
  L 404.98 451.30
  L 406.78 451.09
  Z"
/>
<path fill="#a2a1a0" d="
  M 401.79 570.17
  L 401.84 570.32
  L 401.85 570.51
  L 401.67 570.86
  L 401.29 570.98
  L 385.25 570.98
  L 384.40 570.86
  L 383.77 570.50
  L 383.77 570.50
  L 383.36 569.91
  L 383.17 569.08
  L 383.01 565.50
  L 383.04 466.48
  L 383.24 464.87
  L 383.85 463.16
  L 383.85 568.88
  L 384.21 569.75
  L 385.08 570.11
  L 401.79 570.17
  Z"
/>
<path fill="#a2a1a0" d="
  M 445.42 480.46
  L 446.14 493.70
  L 446.52 493.80
  L 446.10 494.05
  L 445.97 494.08
  L 445.40 493.92
  L 445.16 493.38
  L 445.42 480.46
  Z"
/>
<path fill="#a2a1a0" d="
  M 447.68 494.47
  L 449.52 495.04
  L 499.38 516.62
  L 510.38 521.21
  L 511.75 521.55
  L 513.30 521.45
  L 515.08 520.85
  L 521.90 517.78
  L 545.71 507.17
  L 569.77 497.06
  L 513.75 521.75
  L 512.31 522.09
  L 510.85 521.88
  L 507.37 520.57
  L 502.49 518.46
  L 498.65 516.80
  L 480.29 509.06
  L 450.00 495.74
  L 449.57 495.54
  L 447.68 494.47
  Z"
/>
<path fill="#a2a1a0" d="
  M 508.50 599.06
  L 509.64 599.27
  L 511.08 599.51
  L 512.17 599.51
  L 513.74 599.06
  L 574.50 572.74
  L 576.39 571.82
  L 577.38 570.91
  L 577.89 569.60
  L 578.03 567.60
  L 578.03 514.81
  L 577.69 514.14
  L 576.95 514.03
  L 576.95 514.03
  L 576.72 514.16
  L 576.00 514.60
  L 575.11 514.89
  L 574.12 514.96
  L 574.71 514.53
  L 576.10 513.74
  L 577.61 513.14
  L 578.38 513.24
  L 578.81 513.88
  L 578.82 514.02
  L 578.82 569.98
  L 578.72 570.67
  L 578.43 571.30
  L 577.96 571.82
  L 577.37 572.19
  L 513.42 599.98
  L 512.42 600.22
  L 511.27 600.15
  L 509.96 599.76
  L 508.50 599.06
  Z"
/>
<path fill="#a2a1a0" d="
  M 449.55 515.25
  L 445.39 513.93
  L 445.26 513.56
  L 445.24 513.46
  L 445.36 513.26
  L 445.60 513.25
  L 449.55 515.25
  Z"
/>
<path fill="#a2a1a0" d="
  M 445.34 514.84
  L 445.72 515.46
  L 445.83 516.07
  L 445.83 516.07
  L 445.68 516.65
  L 445.26 517.23
  L 445.03 515.79
  L 445.34 514.84
  Z"
/>
<path fill="#a2a1a0" d="
  M 573.25 515.26
  L 514.19 541.29
  L 542.66 528.28
  L 571.31 515.78
  L 572.61 515.37
  L 573.25 515.26
  Z"
/>
<path fill="#a2a1a0" d="
  M 462.30 520.77
  L 450.28 515.53
  L 462.30 520.77
  Z"
/>
<path fill="#a2a1a0" d="
  M 494.80 534.99
  L 463.79 521.52
  L 494.80 534.99
  Z"
/>
<path fill="#a2a1a0" d="
  M 511.49 542.16
  L 506.09 540.23
  L 506.09 540.23
  L 501.49 538.25
  L 497.00 535.99
  L 511.49 542.16
  Z"
/>
<path fill="#a2a1a0" d="
  M 445.42 547.77
  L 445.80 550.92
  L 445.93 554.08
  L 445.93 554.08
  L 445.79 557.35
  L 445.38 560.63
  L 445.42 547.77
  Z"
/>
<path fill="#a2a1a0" d="
  M 445.50 570.96
  L 501.13 595.27
  L 508.45 598.67
  L 508.60 598.83
  L 508.50 599.06
  L 477.82 585.61
  L 452.56 574.75
  L 448.72 572.92
  L 445.50 570.96
  Z"
/>
<path fill="#a2a1a0" d="
  M 444.86 590.98
  L 427.62 583.88
  L 427.32 583.68
  L 427.06 582.94
  L 444.86 590.98
  Z"
/>
<path fill="#a2a1a0" d="
  M 511.13 619.88
  L 446.03 591.53
  L 511.13 619.88
  Z"
/>
<path fill="#a2a1a0" d="
  M 568.52 595.29
  L 560.89 598.98
  L 553.19 602.48
  L 553.19 602.48
  L 553.18 602.49
  L 545.39 605.80
  L 537.52 608.93
  L 551.25 602.45
  L 551.25 602.45
  L 559.83 598.76
  L 568.52 595.29
  Z"
/>
<path fill="#a2a1a0" d="
  M 537.30 609.07
  L 515.59 619.10
  L 514.25 619.51
  L 512.33 619.76
  L 520.09 616.27
  L 529.92 611.90
  L 537.30 609.07
  Z"
/>
<path fill="#a2a1a0" d="
  M 329.92 652.08
  L 303.60 651.81
  L 303.57 651.81
  L 302.96 652.09
  L 302.73 652.72
  L 302.92 657.95
  L 302.68 659.44
  L 302.03 660.08
  L 301.53 660.10
  L 300.93 659.87
  L 301.07 659.54
  L 301.66 658.92
  L 302.02 658.24
  L 302.02 651.47
  L 302.15 651.14
  L 302.48 651.01
  L 329.42 651.01
  L 329.79 651.12
  L 330.01 651.44
  L 330.04 651.81
  L 329.92 652.08
  Z"
/>
<path fill="#a2a1a0" d="
  M 386.01 689.36
  L 381.76 690.01
  L 377.32 689.92
  L 376.48 689.49
  L 376.14 688.61
  L 376.14 672.35
  L 375.86 671.67
  L 375.18 671.39
  L 367.02 671.39
  L 366.45 671.20
  L 366.27 670.65
  L 366.27 652.64
  L 365.96 651.87
  L 365.19 651.53
  L 365.16 651.53
  L 351.52 651.53
  L 351.06 651.68
  L 350.91 652.14
  L 350.91 736.47
  L 351.17 737.09
  L 351.79 737.35
  L 365.40 737.35
  L 365.91 737.14
  L 366.12 736.62
  L 366.38 703.42
  L 366.56 702.92
  L 366.58 702.90
  L 366.70 702.84
  L 367.26 703.01
  L 366.96 737.49
  L 366.83 737.85
  L 366.47 737.97
  L 350.49 737.97
  L 350.14 737.85
  L 350.02 737.49
  L 350.02 651.49
  L 350.14 651.12
  L 350.51 651.00
  L 366.50 651.00
  L 366.85 651.15
  L 367.00 651.50
  L 367.00 670.53
  L 367.15 670.89
  L 367.51 671.04
  L 376.54 671.04
  L 376.85 671.17
  L 376.98 671.48
  L 376.98 688.44
  L 377.10 688.80
  L 377.43 688.92
  L 386.01 689.36
  Z"
/>
<path fill="#a2a1a0" d="
  M 402.00 651.77
  L 393.13 651.52
  L 386.75 651.57
  L 386.13 651.88
  L 385.41 652.76
  L 385.21 652.66
  L 385.33 652.19
  L 386.04 651.34
  L 386.39 651.09
  L 386.85 651.00
  L 401.47 651.00
  L 401.75 651.09
  L 401.90 651.38
  L 402.00 651.77
  Z"
/>
<path fill="#a2a1a0" d="
  M 459.83 729.00
  L 459.28 716.97
  L 459.23 709.73
  L 459.37 702.49
  L 459.65 688.90
  L 459.50 678.11
  L 459.35 669.57
  L 459.56 660.53
  L 459.40 660.11
  L 458.99 659.93
  L 458.98 659.93
  L 451.37 659.93
  L 450.86 659.83
  L 450.43 659.54
  L 450.14 659.11
  L 450.04 658.60
  L 450.04 652.87
  L 449.71 652.06
  L 448.90 651.73
  L 423.63 651.73
  L 423.03 651.98
  L 422.78 652.58
  L 422.78 658.71
  L 422.43 659.58
  L 421.57 659.97
  L 413.06 660.29
  L 412.98 659.59
  L 413.22 659.16
  L 413.67 658.99
  L 421.52 658.99
  L 421.89 658.87
  L 422.01 658.50
  L 422.01 651.48
  L 422.15 651.14
  L 422.50 651.00
  L 448.75 651.00
  L 449.61 651.17
  L 450.34 651.66
  L 450.34 651.66
  L 450.83 652.39
  L 451.00 653.25
  L 451.00 658.51
  L 451.15 658.86
  L 451.50 659.00
  L 459.45 659.00
  L 459.82 659.12
  L 459.94 659.49
  L 459.83 729.00
  Z"
/>
<path fill="#a2a1a0" d="
  M 483.72 651.15
  L 471.43 651.59
  L 471.05 651.73
  L 470.92 652.11
  L 470.81 705.80
  L 470.49 705.81
  L 470.45 705.79
  L 470.15 705.48
  L 470.04 705.00
  L 470.03 651.72
  L 470.23 651.24
  L 470.71 651.04
  L 470.71 651.04
  L 483.72 651.15
  Z"
/>
<path fill="#000000" d="
  M 487.24 704.19
  L 487.14 704.33
  L 487.13 704.52
  L 487.28 704.81
  L 487.58 704.89
  L 500.06 704.46
  L 500.09 651.58
  L 500.22 651.18
  L 500.60 651.01
  L 501.98 651.04
  L 502.52 651.18
  L 512.77 651.12
  L 515.78 651.10
  L 516.27 684.78
  L 516.35 694.96
  L 515.99 703.75
  L 516.31 704.62
  L 517.16 704.99
  L 517.16 704.99
  L 517.18 704.99
  L 528.55 704.99
  L 529.12 704.91
  L 529.52 704.67
  L 529.52 704.67
  L 529.77 704.26
  L 529.85 703.68
  L 529.85 652.15
  L 530.03 651.60
  L 530.58 651.42
  L 544.57 651.42
  L 545.05 651.53
  L 545.43 651.86
  L 545.89 652.48
  L 545.95 654.33
  L 545.84 654.78
  L 545.63 705.15
  L 545.47 705.64
  L 544.78 706.00
  L 540.59 706.00
  L 540.56 706.00
  L 539.92 706.14
  L 539.39 706.52
  L 539.04 707.08
  L 538.94 707.72
  L 539.28 716.15
  L 531.00 716.00
  L 531.00 715.59
  L 530.52 716.07
  L 530.35 716.41
  L 530.28 716.83
  L 530.28 736.47
  L 530.04 737.06
  L 529.45 737.30
  L 514.71 737.30
  L 514.19 737.09
  L 513.96 736.57
  L 513.38 716.08
  L 512.25 716.20
  L 503.39 716.37
  L 503.53 716.04
  L 502.80 716.41
  L 502.51 736.46
  L 502.22 737.15
  L 501.52 737.44
  L 487.20 737.44
  L 486.73 737.35
  L 486.29 737.06
  L 485.73 736.24
  L 485.72 736.22
  L 485.98 717.00
  L 486.05 716.62
  L 485.65 716.12
  L 485.00 715.93
  L 478.29 716.06
  L 477.38 715.70
  L 476.99 714.80
  L 476.99 714.79
  L 476.99 706.47
  L 476.69 706.01
  L 476.15 705.96
  L 475.98 706.12
  L 470.81 705.80
  L 470.92 652.11
  L 471.05 651.73
  L 471.43 651.59
  L 483.72 651.15
  L 484.64 650.99
  L 486.48 651.12
  L 486.86 651.34
  L 486.98 651.75
  L 487.24 704.19
  Z"
/>
<path fill="#a2a1a0" d="
  M 512.77 651.12
  L 502.52 651.18
  L 512.77 651.12
  Z"
/>
<path fill="#a2a1a0" d="
  M 516.27 684.78
  L 515.78 651.10
  L 516.54 651.12
  L 516.85 651.41
  L 516.96 651.85
  L 516.98 680.75
  L 516.92 681.91
  L 516.27 684.78
  Z"
/>
<path fill="#a2a1a0" d="
  M 545.89 652.48
  L 545.43 651.86
  L 545.05 651.53
  L 544.57 651.42
  L 530.58 651.42
  L 530.03 651.60
  L 529.85 652.15
  L 529.85 703.68
  L 529.77 704.26
  L 529.52 704.67
  L 529.52 704.67
  L 529.12 704.91
  L 528.55 704.99
  L 517.18 704.99
  L 517.16 704.99
  L 516.31 704.62
  L 515.99 703.75
  L 516.35 694.96
  L 516.95 698.62
  L 517.05 702.26
  L 517.05 702.26
  L 516.97 703.40
  L 517.10 703.81
  L 517.48 704.00
  L 517.51 704.00
  L 528.21 704.00
  L 528.73 703.79
  L 528.94 703.27
  L 528.94 651.68
  L 529.11 651.17
  L 529.60 651.01
  L 545.31 651.01
  L 545.76 651.15
  L 545.95 651.59
  L 545.89 652.48
  Z"
/>
<path fill="#a2a1a0" d="
  M 586.89 651.79
  L 587.01 678.61
  L 586.93 679.21
  L 586.68 679.63
  L 586.68 679.63
  L 586.68 679.63
  L 586.25 679.89
  L 585.66 679.97
  L 574.08 679.97
  L 573.35 679.67
  L 573.05 678.94
  L 573.05 652.09
  L 572.80 651.49
  L 572.20 651.24
  L 556.98 651.39
  L 573.51 651.06
  L 573.87 651.17
  L 573.99 651.54
  L 573.99 678.50
  L 574.14 678.86
  L 574.49 679.01
  L 585.76 679.01
  L 586.02 678.74
  L 586.02 652.94
  L 586.12 652.45
  L 586.47 652.03
  L 586.89 651.79
  Z"
/>
<path fill="#a2a1a0" d="
  M 602.71 684.95
  L 603.21 683.24
  L 603.09 652.05
  L 602.84 651.49
  L 602.27 651.28
  L 602.27 651.28
  L 602.23 651.28
  L 594.90 651.65
  L 587.45 651.22
  L 603.45 651.20
  L 603.86 651.34
  L 604.00 651.75
  L 604.00 684.42
  L 603.88 684.80
  L 603.52 684.98
  L 603.07 685.01
  L 602.71 684.95
  Z"
/>
<path fill="#a2a1a0" d="
  M 630.66 668.85
  L 630.91 653.07
  L 630.81 652.52
  L 630.50 652.04
  L 630.03 651.72
  L 629.48 651.61
  L 629.47 651.61
  L 615.46 651.61
  L 614.99 651.80
  L 614.80 652.27
  L 614.80 736.22
  L 615.08 737.07
  L 615.94 737.36
  L 629.32 737.36
  L 630.03 737.06
  L 630.32 736.35
  L 630.41 698.88
  L 630.46 698.51
  L 630.90 697.82
  L 631.08 697.74
  L 631.27 697.84
  L 631.46 698.03
  L 630.99 698.07
  L 630.84 698.51
  L 630.97 737.50
  L 630.85 737.87
  L 630.48 737.99
  L 614.63 737.99
  L 614.17 737.84
  L 614.02 737.38
  L 614.02 651.50
  L 614.14 651.14
  L 614.50 651.02
  L 630.29 651.02
  L 630.75 651.17
  L 630.89 651.62
  L 630.66 668.85
  Z"
/>
<path fill="#a2a1a0" d="
  M 673.97 651.85
  L 658.04 651.72
  L 658.03 651.70
  L 658.02 651.34
  L 658.18 651.09
  L 658.48 651.00
  L 673.44 651.00
  L 673.76 651.12
  L 673.92 651.42
  L 673.97 651.85
  Z"
/>
<path fill="#a2a1a0" d="
  M 722.03 651.46
  L 695.43 651.95
  L 695.04 652.12
  L 694.88 652.51
  L 694.88 658.44
  L 694.75 659.09
  L 694.39 659.64
  L 693.84 660.01
  L 693.19 660.14
  L 685.09 660.22
  L 685.00 659.68
  L 685.11 659.29
  L 685.16 659.22
  L 685.95 658.99
  L 693.53 658.98
  L 693.90 658.85
  L 694.02 658.48
  L 694.02 651.43
  L 694.13 651.11
  L 694.45 651.01
  L 722.03 651.46
  Z"
/>
<path fill="#000000" d="
  M 586.89 651.79
  L 587.45 651.22
  L 594.90 651.65
  L 602.23 651.28
  L 602.27 651.28
  L 602.84 651.49
  L 603.09 652.05
  L 603.21 683.24
  L 602.71 684.95
  L 596.41 684.89
  L 596.15 684.59
  L 595.80 684.59
  L 595.44 684.85
  L 595.29 685.28
  L 595.29 685.80
  L 595.41 692.50
  L 595.35 693.05
  L 594.83 693.90
  L 588.29 693.83
  L 587.91 693.61
  L 587.32 694.14
  L 587.21 694.56
  L 587.21 736.40
  L 587.10 736.89
  L 586.67 737.38
  L 586.05 737.56
  L 572.79 737.56
  L 572.79 737.56
  L 572.24 737.45
  L 571.79 737.14
  L 571.48 736.68
  L 571.38 736.14
  L 571.44 695.73
  L 571.20 694.38
  L 570.89 693.91
  L 570.52 693.69
  L 570.52 693.69
  L 570.11 693.73
  L 569.65 694.00
  L 563.93 694.17
  L 563.95 687.48
  L 563.97 687.48
  L 564.06 685.79
  L 564.01 686.03
  L 564.01 685.54
  L 563.90 685.22
  L 563.59 685.08
  L 563.59 685.08
  L 563.58 685.08
  L 556.96 685.13
  L 556.98 651.39
  L 572.20 651.24
  L 572.80 651.49
  L 573.05 652.09
  L 573.05 678.94
  L 573.06 679.09
  L 573.41 679.72
  L 574.08 679.97
  L 585.66 679.97
  L 586.25 679.89
  L 586.68 679.63
  L 586.68 679.63
  L 586.93 679.21
  L 587.01 678.61
  L 586.89 651.79
  Z"
/>
<path fill="#000000" d="
  M 386.01 689.36
  L 385.96 653.49
  L 385.85 653.04
  L 385.53 652.78
  L 385.41 652.76
  L 386.13 651.88
  L 386.75 651.57
  L 393.13 651.52
  L 402.00 651.77
  L 402.00 737.53
  L 388.70 737.82
  L 387.35 738.05
  L 386.51 737.94
  L 386.13 737.71
  L 386.01 737.30
  L 385.76 720.82
  L 385.85 720.56
  L 385.79 720.43
  L 385.50 720.31
  L 380.77 720.12
  L 375.88 720.61
  L 375.65 707.31
  L 376.07 704.50
  L 375.93 703.65
  L 375.57 703.18
  L 375.57 703.18
  L 375.57 703.18
  L 375.14 703.06
  L 367.26 703.01
  L 366.70 702.84
  L 366.58 702.90
  L 366.56 702.92
  L 366.38 703.42
  L 366.12 736.62
  L 365.91 737.14
  L 365.40 737.35
  L 365.40 737.35
  L 351.79 737.35
  L 351.17 737.09
  L 350.91 736.47
  L 350.91 652.14
  L 351.06 651.68
  L 351.52 651.53
  L 365.16 651.53
  L 365.77 651.71
  L 366.14 652.11
  L 366.27 652.64
  L 366.27 670.65
  L 366.45 671.20
  L 367.02 671.39
  L 375.18 671.39
  L 375.86 671.67
  L 376.14 672.35
  L 376.14 688.61
  L 376.48 689.49
  L 377.32 689.92
  L 381.76 690.01
  L 386.01 689.36
  Z"
/>
<path fill="#000000" d="
  M 459.83 729.00
  L 459.87 729.07
  L 459.87 729.07
  L 459.87 729.48
  L 459.58 730.02
  L 454.58 730.32
  L 453.10 729.98
  L 450.84 729.91
  L 450.28 733.01
  L 450.35 736.32
  L 450.35 736.37
  L 450.09 737.11
  L 449.38 737.42
  L 421.98 737.70
  L 421.95 731.01
  L 422.08 730.63
  L 421.74 730.17
  L 421.22 729.99
  L 414.54 730.02
  L 414.51 730.02
  L 413.83 729.71
  L 413.57 729.00
  L 413.99 719.78
  L 414.10 712.00
  L 413.91 665.25
  L 413.71 663.23
  L 413.12 661.46
  L 413.06 660.29
  L 421.57 659.97
  L 422.43 659.58
  L 422.78 658.71
  L 422.78 652.58
  L 422.92 652.11
  L 423.23 651.83
  L 423.63 651.73
  L 448.90 651.73
  L 449.71 652.06
  L 450.04 652.87
  L 450.04 658.60
  L 450.05 658.79
  L 450.50 659.61
  L 451.37 659.93
  L 458.98 659.93
  L 458.99 659.93
  L 459.40 660.11
  L 459.56 660.53
  L 459.35 669.57
  L 459.50 678.11
  L 459.65 688.90
  L 459.37 702.49
  L 459.23 709.73
  L 459.28 716.97
  L 459.83 729.00
  Z
  M 429.78 719.74
  L 430.11 720.68
  L 430.11 720.68
  L 430.42 720.90
  L 430.92 720.97
  L 441.77 720.99
  L 442.60 721.45
  L 443.27 721.46
  L 443.27 721.46
  L 443.84 720.92
  L 443.88 720.73
  L 443.88 670.00
  L 443.62 669.38
  L 443.00 669.12
  L 430.26 669.12
  L 429.74 669.33
  L 429.52 669.84
  L 429.27 694.96
  L 429.78 719.74
  Z"
/>
<path fill="#000000" d="
  M 630.66 668.85
  L 632.91 669.03
  L 634.64 668.83
  L 639.33 668.87
  L 639.60 669.09
  L 639.88 669.45
  L 639.96 669.85
  L 639.97 675.97
  L 639.84 676.33
  L 640.43 676.83
  L 640.51 676.84
  L 648.68 676.36
  L 649.36 676.02
  L 649.59 675.30
  L 649.59 675.27
  L 649.12 671.49
  L 649.08 669.03
  L 657.57 668.85
  L 658.11 668.60
  L 658.34 668.10
  L 658.07 667.86
  L 658.04 651.72
  L 673.97 651.85
  L 674.37 731.49
  L 674.05 735.89
  L 673.65 736.74
  L 672.79 737.11
  L 658.75 737.51
  L 658.03 737.03
  L 658.07 699.12
  L 658.07 699.11
  L 657.72 698.31
  L 656.91 697.99
  L 650.19 698.18
  L 650.20 697.97
  L 649.79 697.65
  L 649.74 697.64
  L 649.32 697.71
  L 649.09 698.08
  L 648.93 699.92
  L 648.99 701.73
  L 648.99 701.73
  L 649.30 703.77
  L 649.21 705.54
  L 649.05 706.96
  L 645.62 707.16
  L 639.09 707.16
  L 638.95 697.75
  L 636.38 697.31
  L 633.83 697.36
  L 631.25 697.87
  L 631.46 698.03
  L 631.27 697.84
  L 631.08 697.74
  L 630.90 697.82
  L 630.46 698.51
  L 630.41 698.88
  L 630.32 736.35
  L 630.03 737.06
  L 629.32 737.36
  L 615.94 737.36
  L 615.08 737.07
  L 614.80 736.22
  L 614.80 652.27
  L 614.99 651.80
  L 615.46 651.61
  L 629.47 651.61
  L 629.48 651.61
  L 630.03 651.72
  L 630.50 652.04
  L 630.81 652.52
  L 630.91 653.07
  L 630.66 668.85
  Z"
/>
<path fill="#000000" d="
  M 329.92 652.08
  L 329.83 659.40
  L 331.86 659.87
  L 333.96 660.12
  L 336.12 660.15
  L 338.35 659.96
  L 338.90 660.11
  L 339.16 660.62
  L 339.16 660.62
  L 339.16 660.67
  L 339.15 676.00
  L 339.08 676.57
  L 339.21 676.98
  L 339.03 677.56
  L 338.87 677.87
  L 338.60 678.14
  L 338.24 678.22
  L 324.07 678.22
  L 324.07 678.22
  L 323.28 677.89
  L 322.95 677.09
  L 322.95 670.54
  L 322.60 669.68
  L 321.74 669.33
  L 310.72 669.33
  L 310.02 669.43
  L 309.53 669.73
  L 309.53 669.73
  L 309.24 670.22
  L 309.14 670.90
  L 309.14 677.07
  L 309.25 677.84
  L 309.58 678.39
  L 309.58 678.39
  L 310.13 678.72
  L 310.90 678.83
  L 318.64 678.83
  L 319.27 679.04
  L 319.48 679.67
  L 319.48 686.98
  L 319.76 687.66
  L 320.43 687.94
  L 326.98 687.94
  L 328.09 688.05
  L 329.56 687.85
  L 329.12 694.53
  L 329.12 694.59
  L 329.21 695.09
  L 329.49 695.51
  L 329.91 695.79
  L 330.41 695.88
  L 339.05 695.67
  L 338.70 729.96
  L 338.06 730.24
  L 337.96 730.37
  L 334.23 729.93
  L 330.62 730.10
  L 330.23 730.29
  L 330.10 730.69
  L 330.08 737.48
  L 303.39 737.71
  L 302.74 737.58
  L 302.20 737.21
  L 301.86 736.65
  L 301.77 736.00
  L 301.77 736.00
  L 301.78 735.87
  L 301.90 732.65
  L 301.66 731.23
  L 301.22 729.94
  L 292.30 730.02
  L 292.85 721.75
  L 292.64 713.56
  L 292.83 712.99
  L 293.37 712.72
  L 301.73 712.10
  L 308.32 712.02
  L 308.75 712.14
  L 308.98 712.54
  L 308.89 713.68
  L 308.47 715.67
  L 308.38 717.66
  L 308.38 717.66
  L 308.81 720.43
  L 309.05 720.83
  L 309.50 720.96
  L 320.45 720.96
  L 320.45 720.96
  L 320.99 720.85
  L 321.44 720.55
  L 321.74 720.09
  L 321.85 719.55
  L 321.85 711.11
  L 321.60 710.37
  L 320.85 710.15
  L 309.91 710.57
  L 310.09 707.80
  L 310.67 706.04
  L 310.86 704.29
  L 310.86 704.29
  L 310.72 702.90
  L 310.34 701.52
  L 310.04 701.12
  L 309.55 700.98
  L 302.52 700.98
  L 301.80 700.74
  L 301.56 700.02
  L 301.56 694.38
  L 301.48 693.79
  L 301.23 693.38
  L 301.23 693.38
  L 300.81 693.13
  L 300.24 693.05
  L 293.41 693.05
  L 292.89 692.83
  L 292.67 692.31
  L 292.67 661.00
  L 292.76 660.55
  L 293.03 660.18
  L 293.67 659.82
  L 293.75 659.80
  L 300.93 659.87
  L 301.53 660.10
  L 302.03 660.08
  L 302.68 659.44
  L 302.92 657.95
  L 302.73 652.72
  L 302.96 652.09
  L 303.57 651.81
  L 303.60 651.81
  L 329.92 652.08
  Z"
/>
<path fill="#000000" d="
  M 722.03 651.46
  L 721.94 658.55
  L 721.84 659.10
  L 721.95 659.50
  L 722.41 659.83
  L 723.23 659.92
  L 724.29 660.01
  L 726.91 659.77
  L 727.52 660.03
  L 728.21 659.77
  L 729.11 659.89
  L 729.83 659.69
  L 729.83 659.69
  L 729.91 659.64
  L 730.79 660.28
  L 731.24 661.04
  L 731.31 661.50
  L 731.21 677.33
  L 730.98 677.83
  L 730.47 678.04
  L 716.00 678.04
  L 715.26 677.73
  L 714.95 676.99
  L 714.95 670.46
  L 714.95 670.40
  L 714.54 669.49
  L 713.61 669.12
  L 702.32 669.12
  L 702.32 669.12
  L 701.59 669.43
  L 701.29 670.16
  L 701.65 720.94
  L 714.35 721.12
  L 714.75 719.68
  L 714.95 717.99
  L 714.75 713.86
  L 714.74 713.79
  L 715.03 713.00
  L 715.81 712.66
  L 730.51 712.66
  L 731.10 712.90
  L 731.34 713.49
  L 731.34 729.22
  L 731.10 729.76
  L 730.55 729.96
  L 730.50 729.96
  L 729.99 729.91
  L 727.93 729.97
  L 725.84 730.46
  L 725.58 730.21
  L 724.56 729.88
  L 723.13 730.10
  L 722.95 729.92
  L 722.32 730.18
  L 722.11 730.63
  L 722.11 736.39
  L 721.79 737.17
  L 721.01 737.50
  L 695.53 737.80
  L 694.89 738.03
  L 694.39 737.97
  L 694.31 737.93
  L 694.30 737.93
  L 694.30 737.93
  L 694.06 737.59
  L 693.98 737.01
  L 694.03 731.05
  L 694.24 730.65
  L 693.79 730.03
  L 693.48 729.94
  L 686.55 729.94
  L 686.55 729.94
  L 686.11 729.75
  L 685.93 729.31
  L 685.89 663.73
  L 685.85 663.22
  L 685.85 663.22
  L 685.59 662.31
  L 685.07 661.43
  L 685.09 660.22
  L 693.19 660.14
  L 693.84 660.01
  L 694.39 659.64
  L 694.75 659.09
  L 694.88 658.44
  L 694.88 652.51
  L 695.04 652.12
  L 695.43 651.95
  L 722.03 651.46
  Z"
/>
<path fill="#a2a1a0" d="
  M 545.84 654.78
  L 545.96 706.52
  L 545.84 706.88
  L 545.48 707.00
  L 540.52 707.00
  L 540.18 707.11
  L 540.08 707.48
  L 540.06 712.07
  L 539.77 714.17
  L 539.28 716.15
  L 538.94 707.72
  L 539.04 707.08
  L 539.39 706.52
  L 539.92 706.14
  L 540.56 706.00
  L 540.56 706.00
  L 540.59 706.00
  L 544.78 706.00
  L 545.38 705.75
  L 545.63 705.15
  L 545.84 654.78
  Z"
/>
<path fill="#a2a1a0" d="
  M 721.94 658.55
  L 723.23 659.92
  L 722.41 659.83
  L 721.95 659.50
  L 721.95 659.50
  L 721.84 659.10
  L 721.94 658.55
  Z"
/>
<path fill="#a2a1a0" d="
  M 293.75 659.80
  L 293.67 659.82
  L 293.03 660.18
  L 292.76 660.55
  L 292.67 661.00
  L 292.67 692.31
  L 292.89 692.83
  L 293.41 693.05
  L 300.24 693.05
  L 300.81 693.13
  L 301.23 693.38
  L 301.23 693.38
  L 301.23 693.38
  L 301.48 693.79
  L 301.56 694.38
  L 301.56 700.02
  L 301.80 700.74
  L 302.52 700.98
  L 309.55 700.98
  L 310.04 701.12
  L 310.34 701.52
  L 310.72 702.90
  L 310.86 704.29
  L 310.86 704.29
  L 310.86 704.29
  L 310.67 706.04
  L 310.09 707.80
  L 309.97 702.49
  L 309.83 702.13
  L 309.47 702.01
  L 303.41 702.01
  L 302.50 701.83
  L 301.73 701.32
  L 301.21 700.55
  L 301.03 699.64
  L 301.03 694.52
  L 300.90 694.13
  L 300.52 694.00
  L 292.52 694.00
  L 292.15 693.88
  L 292.03 693.52
  L 292.03 660.97
  L 292.12 660.52
  L 292.40 660.13
  L 293.28 659.40
  L 293.73 659.27
  L 293.73 659.27
  L 293.75 659.80
  Z"
/>
<path fill="#a2a1a0" d="
  M 339.15 676.00
  L 339.16 660.67
  L 339.16 660.62
  L 338.90 660.11
  L 338.35 659.96
  L 336.12 660.15
  L 333.96 660.12
  L 331.86 659.87
  L 329.83 659.40
  L 334.17 658.80
  L 335.69 658.81
  L 336.76 659.02
  L 339.47 659.92
  L 339.83 660.16
  L 339.95 660.57
  L 339.93 675.49
  L 339.89 675.66
  L 339.15 676.00
  Z"
/>
<path fill="#a2a1a0" d="
  M 728.21 659.77
  L 727.52 660.03
  L 726.91 659.77
  L 727.30 659.32
  L 727.50 659.29
  L 727.77 659.34
  L 728.21 659.77
  Z"
/>
<path fill="#a2a1a0" d="
  M 701.65 720.94
  L 701.29 670.16
  L 701.59 669.43
  L 702.32 669.12
  L 702.32 669.12
  L 713.61 669.12
  L 714.12 669.22
  L 714.56 669.51
  L 714.85 669.95
  L 714.95 670.46
  L 714.95 676.99
  L 715.26 677.73
  L 716.00 678.04
  L 730.47 678.04
  L 730.98 677.83
  L 731.21 677.33
  L 731.31 661.50
  L 731.24 661.04
  L 730.79 660.28
  L 729.91 659.64
  L 730.52 659.41
  L 731.02 659.45
  L 731.02 659.45
  L 731.59 660.18
  L 731.82 661.75
  L 731.98 678.73
  L 731.71 679.00
  L 716.37 679.00
  L 715.46 678.82
  L 714.69 678.31
  L 714.18 677.54
  L 714.00 676.63
  L 714.00 670.49
  L 713.88 670.13
  L 713.50 670.00
  L 702.53 670.00
  L 702.14 670.13
  L 702.01 670.52
  L 701.65 720.94
  Z"
/>
<path fill="#a2a1a0" d="
  M 421.95 731.01
  L 413.76 730.97
  L 413.15 730.76
  L 412.95 730.16
  L 413.12 661.46
  L 413.71 663.23
  L 413.91 665.25
  L 414.10 712.00
  L 413.99 719.78
  L 413.57 729.00
  L 413.83 729.71
  L 414.51 730.02
  L 414.54 730.02
  L 421.22 729.99
  L 421.74 730.17
  L 422.08 730.63
  L 421.95 731.01
  Z"
/>
<path fill="#a2a1a0" d="
  M 694.03 731.05
  L 687.50 731.05
  L 686.47 730.91
  L 685.72 730.48
  L 685.72 730.48
  L 685.27 729.80
  L 685.06 728.84
  L 684.91 724.99
  L 684.87 693.23
  L 685.07 661.43
  L 685.59 662.31
  L 685.85 663.22
  L 685.85 663.22
  L 685.89 663.73
  L 685.93 729.31
  L 686.11 729.75
  L 686.55 729.94
  L 686.55 729.94
  L 693.48 729.94
  L 693.79 730.03
  L 694.24 730.65
  L 694.03 731.05
  Z"
/>
<path fill="#a2a1a0" d="
  M 649.08 669.03
  L 648.98 668.58
  L 649.19 668.23
  L 649.85 668.03
  L 658.07 667.86
  L 658.34 668.10
  L 658.11 668.60
  L 657.57 668.85
  L 649.08 669.03
  Z"
/>
<path fill="#a2a1a0" d="
  M 639.33 668.87
  L 634.64 668.83
  L 635.87 668.09
  L 637.09 667.87
  L 637.09 667.87
  L 637.09 667.87
  L 638.22 668.14
  L 639.33 668.87
  Z"
/>
<path fill="#a2a1a0" d="
  M 339.21 676.98
  L 339.88 677.15
  L 339.88 677.18
  L 339.88 677.21
  L 339.75 677.88
  L 339.33 678.44
  L 338.70 678.82
  L 337.96 678.96
  L 324.39 679.00
  L 323.48 678.82
  L 322.70 678.30
  L 322.18 677.53
  L 322.00 676.62
  L 322.00 676.62
  L 322.00 670.49
  L 321.88 670.12
  L 321.50 669.99
  L 310.24 669.99
  L 310.03 670.06
  L 309.97 670.25
  L 309.97 677.75
  L 310.04 677.95
  L 310.24 678.02
  L 319.48 678.02
  L 319.82 678.14
  L 319.94 678.48
  L 319.94 686.41
  L 320.06 686.79
  L 320.44 686.95
  L 325.98 686.98
  L 326.75 687.21
  L 326.98 687.94
  L 320.43 687.94
  L 319.76 687.66
  L 319.48 686.98
  L 319.48 679.67
  L 319.27 679.04
  L 318.64 678.83
  L 310.90 678.83
  L 310.13 678.72
  L 309.58 678.39
  L 309.58 678.39
  L 309.25 677.84
  L 309.14 677.07
  L 309.14 670.90
  L 309.24 670.22
  L 309.53 669.73
  L 310.02 669.43
  L 310.72 669.33
  L 321.74 669.33
  L 322.60 669.68
  L 322.95 670.54
  L 322.95 677.09
  L 323.28 677.89
  L 324.07 678.22
  L 324.07 678.22
  L 338.24 678.22
  L 338.60 678.14
  L 338.87 677.87
  L 339.03 677.56
  L 339.21 676.98
  Z"
/>
<path fill="#a2a1a0" d="
  M 441.77 720.99
  L 442.36 721.01
  L 442.75 720.82
  L 442.75 720.82
  L 442.95 720.22
  L 443.01 670.57
  L 442.83 670.16
  L 442.42 669.99
  L 430.57 669.99
  L 430.41 670.01
  L 430.09 670.23
  L 429.96 670.60
  L 429.78 719.74
  L 429.27 694.96
  L 429.52 669.84
  L 429.74 669.33
  L 430.26 669.12
  L 443.00 669.12
  L 443.62 669.38
  L 443.88 670.00
  L 443.88 720.73
  L 443.84 720.92
  L 443.27 721.46
  L 443.27 721.46
  L 442.60 721.45
  L 441.77 720.99
  Z"
/>
<path fill="#a2a1a0" d="
  M 639.97 675.97
  L 648.43 675.94
  L 648.81 675.82
  L 648.96 675.42
  L 649.12 671.49
  L 649.59 675.27
  L 649.59 675.30
  L 649.36 676.02
  L 648.68 676.36
  L 640.51 676.84
  L 640.43 676.83
  L 639.84 676.33
  L 639.97 675.97
  Z"
/>
<path fill="#a2a1a0" d="
  M 596.41 684.89
  L 596.09 685.17
  L 595.94 685.76
  L 595.98 689.60
  L 595.94 693.44
  L 595.80 693.85
  L 595.39 694.02
  L 595.00 693.98
  L 594.83 693.90
  L 595.35 693.05
  L 595.41 692.50
  L 595.29 685.80
  L 595.29 685.28
  L 595.44 684.85
  L 595.80 684.59
  L 596.15 684.59
  L 596.41 684.89
  Z"
/>
<path fill="#a2a1a0" d="
  M 564.06 685.79
  L 561.57 686.10
  L 559.56 686.10
  L 558.02 685.78
  L 556.96 685.13
  L 563.58 685.08
  L 563.59 685.08
  L 563.90 685.22
  L 564.01 685.54
  L 564.01 686.03
  L 564.06 685.79
  Z"
/>
<path fill="#a2a1a0" d="
  M 563.93 694.17
  L 563.23 693.06
  L 562.86 691.89
  L 562.78 690.85
  L 562.94 689.77
  L 563.95 687.48
  L 563.93 694.17
  Z"
/>
<path fill="#a2a1a0" d="
  M 339.05 695.67
  L 330.41 695.88
  L 329.91 695.79
  L 329.49 695.51
  L 329.21 695.09
  L 329.12 694.59
  L 329.12 694.59
  L 329.12 694.53
  L 329.56 687.85
  L 330.08 694.47
  L 330.23 694.82
  L 330.59 694.91
  L 335.09 694.95
  L 339.05 695.67
  Z"
/>
<path fill="#a2a1a0" d="
  M 588.29 693.83
  L 587.97 737.48
  L 587.85 737.86
  L 587.47 737.98
  L 571.63 737.98
  L 571.20 737.84
  L 571.05 737.39
  L 571.05 696.04
  L 570.95 695.54
  L 570.72 695.18
  L 569.65 694.00
  L 570.11 693.73
  L 570.52 693.69
  L 570.52 693.69
  L 570.89 693.91
  L 571.20 694.38
  L 571.44 695.73
  L 571.38 736.14
  L 571.48 736.68
  L 571.79 737.14
  L 572.24 737.45
  L 572.79 737.56
  L 572.79 737.56
  L 586.05 737.56
  L 586.87 737.22
  L 587.21 736.40
  L 587.21 694.56
  L 587.32 694.14
  L 587.91 693.61
  L 588.29 693.83
  Z"
/>
<path fill="#a2a1a0" d="
  M 638.95 697.75
  L 631.25 697.87
  L 633.83 697.36
  L 636.38 697.31
  L 638.95 697.75
  Z"
/>
<path fill="#a2a1a0" d="
  M 650.19 698.18
  L 649.30 703.77
  L 648.99 701.73
  L 648.99 701.73
  L 648.93 699.92
  L 649.09 698.08
  L 649.32 697.71
  L 649.74 697.64
  L 649.79 697.65
  L 650.20 697.97
  L 650.19 698.18
  Z"
/>
<path fill="#a2a1a0" d="
  M 375.65 707.31
  L 375.04 705.70
  L 375.04 705.70
  L 374.93 704.41
  L 375.14 703.06
  L 375.57 703.18
  L 375.57 703.18
  L 375.93 703.65
  L 376.07 704.50
  L 375.65 707.31
  Z"
/>
<path fill="#a2a1a0" d="
  M 500.06 704.46
  L 487.58 704.89
  L 487.28 704.81
  L 487.13 704.52
  L 487.14 704.33
  L 487.24 704.19
  L 490.54 703.95
  L 493.84 703.92
  L 493.84 703.92
  L 500.06 704.46
  Z"
/>
<path fill="#a2a1a0" d="
  M 649.21 705.54
  L 649.82 706.62
  L 649.75 706.95
  L 649.46 707.13
  L 649.44 707.13
  L 649.42 707.13
  L 649.05 706.96
  L 649.21 705.54
  Z"
/>
<path fill="#a2a1a0" d="
  M 485.98 717.00
  L 478.18 716.97
  L 477.50 716.86
  L 476.89 716.54
  L 476.89 716.54
  L 476.26 715.78
  L 476.03 714.82
  L 475.98 706.12
  L 476.15 705.96
  L 476.69 706.01
  L 476.99 706.47
  L 476.99 714.79
  L 476.99 714.80
  L 477.38 715.70
  L 478.29 716.06
  L 485.00 715.93
  L 485.65 716.12
  L 486.05 716.62
  L 485.98 717.00
  Z"
/>
<path fill="#a2a1a0" d="
  M 645.62 707.16
  L 643.71 707.82
  L 642.06 708.09
  L 640.66 707.98
  L 639.51 707.50
  L 639.51 707.50
  L 639.09 707.16
  L 645.62 707.16
  Z"
/>
<path fill="#a2a1a0" d="
  M 308.89 713.68
  L 309.01 719.50
  L 309.14 719.86
  L 309.52 719.99
  L 320.48 719.99
  L 320.85 719.83
  L 321.01 719.46
  L 321.01 711.33
  L 320.88 711.01
  L 320.56 710.87
  L 309.91 710.57
  L 320.85 710.15
  L 321.60 710.37
  L 321.85 711.11
  L 321.85 719.55
  L 321.74 720.09
  L 321.44 720.55
  L 320.99 720.85
  L 320.45 720.96
  L 320.45 720.96
  L 309.50 720.96
  L 309.05 720.83
  L 308.81 720.43
  L 308.38 717.66
  L 308.38 717.66
  L 308.47 715.67
  L 308.89 713.68
  Z"
/>
<path fill="#a2a1a0" d="
  M 301.73 712.10
  L 293.37 712.72
  L 292.83 712.99
  L 292.64 713.56
  L 292.85 721.75
  L 292.30 730.02
  L 292.05 712.59
  L 292.17 712.21
  L 292.56 712.08
  L 301.73 712.10
  Z"
/>
<path fill="#a2a1a0" d="
  M 725.84 730.46
  L 727.93 729.97
  L 729.99 729.91
  L 729.99 729.91
  L 730.50 729.96
  L 730.55 729.96
  L 731.10 729.76
  L 731.34 729.22
  L 731.34 713.49
  L 731.10 712.90
  L 730.51 712.66
  L 715.81 712.66
  L 715.03 713.00
  L 714.74 713.79
  L 714.75 713.86
  L 714.95 717.99
  L 714.75 719.68
  L 714.35 721.12
  L 714.05 712.51
  L 714.16 712.14
  L 714.52 712.02
  L 731.50 712.02
  L 731.50 712.02
  L 731.83 712.16
  L 731.97 712.50
  L 731.97 730.32
  L 731.84 730.74
  L 731.43 730.95
  L 729.19 731.09
  L 727.04 730.82
  L 725.84 730.46
  Z"
/>
<path fill="#a2a1a0" d="
  M 531.00 716.00
  L 530.94 737.50
  L 530.82 737.86
  L 530.44 737.99
  L 515.01 737.99
  L 514.99 737.99
  L 514.21 737.83
  L 513.55 737.37
  L 513.12 736.70
  L 512.98 735.92
  L 513.38 716.08
  L 513.96 736.57
  L 514.19 737.09
  L 514.71 737.30
  L 529.45 737.30
  L 530.04 737.06
  L 530.28 736.47
  L 530.28 716.83
  L 530.35 716.41
  L 530.52 716.07
  L 531.00 715.59
  L 531.00 716.00
  Z"
/>
<path fill="#a2a1a0" d="
  M 512.25 716.20
  L 511.56 716.81
  L 511.23 716.90
  L 507.44 717.07
  L 505.41 716.83
  L 503.39 716.37
  L 512.25 716.20
  Z"
/>
<path fill="#a2a1a0" d="
  M 502.80 716.41
  L 502.92 737.50
  L 502.79 737.89
  L 502.42 738.01
  L 486.95 738.01
  L 486.52 737.91
  L 486.18 737.60
  L 485.22 736.74
  L 485.20 736.73
  L 485.03 736.50
  L 485.11 736.23
  L 485.11 736.23
  L 485.20 736.17
  L 485.49 736.12
  L 485.72 736.22
  L 485.73 736.24
  L 486.29 737.06
  L 486.73 737.35
  L 487.20 737.44
  L 501.52 737.44
  L 502.22 737.15
  L 502.51 736.46
  L 502.80 716.41
  Z"
/>
<path fill="#a2a1a0" d="
  M 385.76 720.82
  L 380.60 721.07
  L 375.88 720.61
  L 380.77 720.12
  L 385.50 720.31
  L 385.79 720.43
  L 385.85 720.56
  L 385.76 720.82
  Z"
/>
<path fill="#a2a1a0" d="
  M 450.84 729.91
  L 450.96 737.46
  L 450.84 737.85
  L 450.44 737.98
  L 421.98 737.70
  L 449.38 737.42
  L 450.09 737.11
  L 450.35 736.37
  L 450.35 736.32
  L 450.28 733.01
  L 450.84 729.91
  Z"
/>
<path fill="#a2a1a0" d="
  M 459.58 730.02
  L 458.55 730.75
  L 457.46 731.09
  L 457.46 731.09
  L 457.46 731.09
  L 456.06 730.99
  L 454.58 730.32
  L 459.58 730.02
  Z"
/>
<path fill="#a2a1a0" d="
  M 723.13 730.10
  L 722.96 734.94
  L 722.84 736.50
  L 722.31 737.45
  L 721.57 737.88
  L 720.50 738.03
  L 695.53 737.80
  L 721.01 737.50
  L 721.79 737.17
  L 722.11 736.39
  L 722.11 730.63
  L 722.32 730.18
  L 722.95 729.92
  L 723.13 730.10
  Z"
/>
<path fill="#a2a1a0" d="
  M 330.08 737.48
  L 301.59 737.96
  L 301.19 737.83
  L 301.06 737.43
  L 301.22 729.94
  L 301.66 731.23
  L 301.90 732.65
  L 301.78 735.87
  L 301.77 736.00
  L 301.86 736.65
  L 302.20 737.21
  L 302.74 737.58
  L 303.39 737.71
  L 330.08 737.48
  Z"
/>
<path fill="#a2a1a0" d="
  M 338.70 729.96
  L 338.83 730.35
  L 338.77 730.60
  L 338.51 730.69
  L 337.96 730.37
  L 338.06 730.24
  L 338.70 729.96
  Z"
/>
<path fill="#a2a1a0" d="
  M 674.37 731.49
  L 674.77 733.04
  L 674.90 734.59
  L 674.90 734.59
  L 674.79 736.00
  L 674.46 737.41
  L 674.16 737.83
  L 673.67 737.99
  L 658.53 737.99
  L 658.16 737.87
  L 658.03 737.49
  L 658.03 737.03
  L 658.75 737.51
  L 672.79 737.11
  L 673.65 736.74
  L 674.05 735.89
  L 674.37 731.49
  Z"
/>
<path fill="#a2a1a0" d="
  M 402.00 737.53
  L 398.79 737.90
  L 395.50 738.07
  L 388.70 737.82
  L 402.00 737.53
  Z"
/>
</svg>
